<svg width="155" height="33" viewBox="0 0 155 33" fill="none" xmlns="http://www.w3.org/2000/svg">
<g clip-path="url(#clip0_758_25440)">
<path fill-rule="evenodd" clip-rule="evenodd" d="M83.3734 24.4034C83.4231 23.8687 86.4484 18.775 89.1108 19.2551C90.4174 21.3642 85.2445 24.4649 83.3734 24.4034ZM5.7366 26.4254C3.86877 26.2546 2.06802 23.7919 1.35894 22.0271C0.464072 19.8008 0.98274 16.485 2.03777 14.7377C4.1807 11.1884 9.19416 8.1892 13.1269 8.38995C12.8637 8.73362 11.9464 9.42619 11.4335 9.87956C6.65186 14.1071 4.3183 19.6422 5.7366 26.4254ZM16.0854 7.56947C16.7912 6.53462 20.5779 5.55185 22.1102 5.34406C31.9534 4.00975 34.3458 9.829 29.2286 17.4848C25.884 22.489 19.9421 25.767 13.9745 27.1004C11.1667 27.7277 9.35941 27.6618 6.77664 27.0086C6.63336 26.3389 6.42143 25.8115 6.3294 25.1362C6.07945 23.2966 6.3333 20.4327 6.79633 18.6991C7.66371 15.4514 9.87422 12.239 12.2366 10.2111C12.9663 9.58475 14.0422 8.47522 15.1026 8.43435C18.125 8.31848 21.9837 9.67782 23.0307 9.23926C22.8245 8.84485 23.2468 9.21302 22.7039 8.84969L21.6672 8.33098C20.916 8.00316 16.8349 7.55897 16.0854 7.56947ZM37.2605 19.6774C37.4992 19.0339 45.3533 9.36765 46.436 7.99803C47.6225 6.4973 53.4455 0.403599 55.195 0.886738C55.2767 1.67007 54.2226 2.75506 53.7588 3.36571C49.7872 8.59966 46.2017 14.164 42.4122 19.6589L37.2605 19.6774ZM52.7951 21.6256C50.4109 23.9272 42.6623 31.9867 42.3365 30.9224C42.1268 30.2382 48.005 19.5101 48.4936 18.5628L52.7388 10.4415C53.6789 8.50581 56.2852 4.24379 56.6229 1.93128C57.0454 -0.960472 54.2085 0.218803 53.0539 0.927616C48.6612 3.62368 42.9567 10.3293 38.7967 14.5138L37.2921 16.065C36.7378 16.6987 36.2526 17.1547 35.7573 17.7109C33.412 20.3438 33.978 19.9607 31.9655 19.9617C29.9775 19.9624 28.5704 19.5685 28.4894 20.8353L32.74 20.8464C32.4372 21.6382 28.9156 25.0635 27.7492 26.0653C26.066 27.5111 24.1762 29.016 21.8106 30.2584C19.6267 31.4054 16.7344 32.3468 13.6792 31.9128C11.2852 31.5727 8.17592 30.0445 7.44743 28.0203C10.6908 28.4416 13.3879 28.3617 16.3046 27.3771C18.8442 26.5197 21.1705 25.6038 23.2245 24.3238C26.8797 22.0464 31.1038 18.3552 32.3603 13.3936C33.2461 9.89634 32.9068 7.73853 30.6484 5.96627C28.5874 4.34897 25.6177 4.1254 22.417 4.55022C19.5464 4.93106 17.1805 5.87345 15.0286 7.14063C13.9827 7.75658 14.394 7.61872 13.039 7.69249C10.994 7.80355 8.92533 8.23349 7.11581 9.07657C2.97661 11.0048 -1.44633 15.339 0.453718 21.7064C1.21724 24.2641 2.88328 26.1191 5.03008 27.1679C6.08542 27.6836 5.74436 27.2902 6.38451 28.3636C7.20963 29.7465 8.77907 31.1319 10.2162 31.8681C15.2057 34.4241 22.0315 32.4801 26.1088 30.1994C30.8957 27.5218 33.1787 24.4898 36.4365 20.6085L41.8301 20.615C41.7212 21.2629 40.9744 22.3248 40.6519 22.9175C39.4835 25.0651 38.1932 28.171 38.7154 30.7451C39.159 32.9315 41.0016 33.2651 42.8413 32.1414C43.3598 31.8246 48.5263 26.9817 51.5236 23.8998C50.5022 26.2732 49.7433 29.391 49.924 30.5765C50.1996 32.3833 51.995 32.1081 53.1019 31.2445C54.5068 30.1481 58.4792 24.0674 60.0576 22.4251C60.4538 22.0128 62.364 20.2428 62.5927 19.8397C62.3823 20.2783 61.915 20.8957 61.5998 21.4079C61.2478 21.9795 60.9226 22.5272 60.5891 23.0964C56.7254 29.6981 58.9503 34.565 62.2956 30.606C64.3337 28.1935 70.0063 20.1818 72.3255 19.5692C72.144 20.332 69.8651 23.2488 69.2373 24.6089C68.4939 26.22 67.2631 29.0211 68.4159 31.0229C69.5975 33.0752 72.8818 31.3761 74.1579 30.576C74.8792 30.124 78.0294 27.4321 78.2176 26.7481C78.3506 27.7709 78.1086 28.6432 78.4529 29.6754C78.7442 30.5489 79.1823 31.0583 79.9305 31.4004C82.8313 32.7281 86.7045 29.8909 88.6769 28.2078L91.8539 25.2033C91.5561 26.571 89.2969 31.6596 92.1527 31.7801C93.9728 31.8569 96.1309 28.66 96.9004 27.5666C97.502 26.7115 98.2593 25.7651 98.8222 24.9655C100.63 22.3978 102.731 19.5094 106.141 18.9814C106.017 19.2184 105.449 19.7917 105.196 20.1139C104.269 21.2962 103.39 22.3687 102.541 23.6941C99.3126 28.7346 100.56 34.2079 106.778 30.5684C108.423 29.6053 109.825 27.9489 111.247 26.7899C110.971 27.9742 110.554 29.4676 111.183 30.6986C111.794 31.8927 113.243 31.853 114.325 31.3482C115.503 30.7985 116.125 30.1523 116.933 29.4344C117.53 28.9043 118.593 27.6694 119.217 27.3198C119.142 29.0286 118.875 30.6719 120.274 31.4497C122.75 32.8268 127.169 28.9096 128.868 27.2701C129.295 26.8587 129.745 26.3226 130.213 26.0045C129.983 27.3466 128.886 29.7028 129.661 31.1363C130.743 33.1386 135.617 31.0062 137.51 28.5247C137.866 28.0578 138.309 27.3441 138.695 26.7755C139.251 25.9555 139.255 25.7616 140.569 25.8645C140.441 26.375 140.139 26.7201 140.033 27.2872C138.894 33.3612 144.002 32.1623 147.342 29.5247C148.409 28.6817 149.475 27.5459 150.467 26.5419C151.216 25.7846 154.676 22.0336 155 20.9742C153.864 21.0721 153.895 21.1581 153.264 21.9955C151.42 24.4427 146.288 30.32 143.533 30.4453C141.522 30.5368 143.06 28.1517 143.537 27.3784C144.82 25.2992 146.539 23.2669 147.934 21.2626C148.353 20.6609 149.883 18.7787 150.04 18.1196C149.044 17.9881 147.004 17.4061 145.989 17.9094C145.742 18.0403 145.739 18.1562 145.526 18.4531L144.948 18.942C144.063 17.7369 143.067 17.5316 141.358 17.6186C137.759 17.8012 134.304 22.5112 138.401 25.1795C138.13 25.4138 137.736 25.5125 137.326 25.7627C135.616 26.8055 134.424 28.6573 133.088 30.0736C130.148 33.1901 129.143 29.4787 131.825 25.2258L135.023 21.4563C135.501 20.8444 135.108 20.7137 135.088 20.6862C134.577 20.2086 133.255 20.7137 132.792 21.041C132.302 21.3867 131.808 22.2697 131.533 22.8445C130.68 24.627 127.468 27.8135 125.76 29.0388C125.045 29.5517 122.427 31.3603 121.781 29.9777C121.584 28.8414 122.625 27.4827 123.192 26.6796C124.457 24.8893 128.37 20.0529 129.126 18.6315L124.598 18.6566C123.893 19.7383 122.871 20.9667 122.127 22.0336C120.426 24.4702 117.892 28.3866 115.408 29.9763C114.521 30.5437 114.176 30.6137 113.532 29.9777C113.386 28.7119 114.269 27.4718 114.771 26.6232C115.332 25.6731 116.123 24.5638 116.653 23.8653C117.423 22.849 120.296 19.3728 120.653 18.6276L116.499 18.6484C115.679 19.4778 114.793 20.7459 114.026 21.8123C113.59 22.4192 113.331 22.8938 112.916 23.5121C112.559 24.0428 112.047 24.5209 111.667 24.9527C106.075 31.3199 101.805 31.9225 104.098 27.9838C105.37 25.7981 107.166 23.5636 108.665 21.5334C109.137 20.8942 109.407 20.5207 109.855 19.9092C110.238 19.3869 110.688 18.8941 110.978 18.2897L110.534 18.045C108.417 17.4079 106.097 17.9403 104.094 18.7413C100.415 20.212 98.3601 24.137 96.1302 27.1542C95.487 28.0242 94.9178 28.8054 94.2863 29.4704C93.8702 29.9088 91.8794 32.2075 91.655 30.3457C91.4362 28.5297 92.3247 26.4969 93.2551 25.0878C93.7625 24.3195 94.2898 23.6637 94.9599 22.8931C95.4714 22.305 96.6459 21.5358 96.4604 20.6473C95.3774 20.1722 94.0994 20.9471 93.5833 21.6222C93.2963 21.9978 93.1076 22.4222 92.7603 22.8734C92.4776 23.2407 92.1647 23.5712 91.8512 23.9256C90.084 25.922 85.1768 30.876 82.1813 30.5696C79.6624 30.3118 82.2959 25.8733 82.9031 25.2987C84.7181 24.5107 86.4845 25.096 89.2146 23.093C91.2991 21.5634 91.4012 18.2612 88.7291 18.045C86.3097 17.8493 83.9609 19.1898 82.5241 20.2393C79.9134 22.1466 79.7995 23.4457 78.7403 24.8926C74.2721 30.9963 68.9429 32.6837 71.1425 28.3756C72.1211 26.4589 73.2734 24.8494 74.384 23.1861C75.4084 21.6518 76.9439 19.7181 77.8164 18.1769C76.7709 18.0192 75.1636 18.1281 74.05 18.1207C72.553 18.1105 72.2836 18.5474 71.3525 19.2428C68.5724 21.3199 66.2438 24.3888 64.0142 27.056C63.569 27.5886 61.2533 30.9401 60.5879 31.0037C60.1842 30.4241 60.6935 29.8351 60.9827 29.2796C61.2744 28.7198 61.5799 28.1166 61.8417 27.5334C63.017 24.9162 65.2736 22.0082 66.9785 19.7285C67.3228 19.2684 67.8874 18.742 68.0217 18.1372C65.2712 17.9833 63.6443 17.5725 61.8353 19.3057C59.311 21.7238 56.9475 24.5838 55.0389 27.6796C53.1431 30.755 49.5638 33.5071 51.087 27.9692C51.6182 26.0379 52.7659 24.5589 54.0261 23.0721C54.5894 22.4071 55.7903 21.738 55.6109 20.7587C54.8476 20.4868 54.139 20.6814 53.4675 21.026C53.2471 21.139 53.021 21.3463 52.7951 21.6256ZM144.58 19.1875C144.636 20.0118 143.021 21.9435 142.441 22.8334C142.258 23.1136 141.521 24.4617 141.287 24.6119C140.681 24.9989 139.604 24.8731 139.235 24.2557C137.715 21.7127 142.291 17.2727 144.58 19.1875Z" fill="#568196"/>
</g>
<defs>
<clipPath id="clip0_758_25440">
<rect width="155" height="33" fill="white"/>
</clipPath>
</defs>
</svg>
