<svg width="32" height="32" viewBox="0 0 32 32" fill="none" xmlns="http://www.w3.org/2000/svg">
<path d="M5.9336 25.3336C5.42213 25.3336 4.972 25.1392 4.5832 24.7504C4.1944 24.361 4 23.9109 4 23.4V8.59998C4 8.08905 4.1944 7.63918 4.5832 7.25038C4.972 6.86105 5.42213 6.66638 5.9336 6.66638H26.0664C26.5779 6.66638 27.028 6.86105 27.4168 7.25038C27.8056 7.63918 28 8.08905 28 8.59998V14.7H5.1336V23.4336C5.1336 23.6778 5.2112 23.8666 5.3664 24C5.52213 24.1333 5.7112 24.2 5.9336 24.2H16.8C16.9776 24.2 17.1165 24.2554 17.2168 24.3664C17.3165 24.4778 17.3664 24.6112 17.3664 24.7664C17.3664 24.9221 17.3165 25.0554 17.2168 25.1664C17.1165 25.2778 16.9776 25.3336 16.8 25.3336H5.9336ZM5.1336 11.7336H26.8664V8.59998C26.8664 8.37758 26.7888 8.18878 26.6336 8.03358C26.4779 7.87785 26.2888 7.79998 26.0664 7.79998H5.9336C5.7112 7.79998 5.52213 7.87785 5.3664 8.03358C5.2112 8.18878 5.1336 8.37758 5.1336 8.59998V11.7336ZM26.7664 28.6664C26.6112 28.6664 26.4779 28.6109 26.3664 28.5C26.2555 28.389 26.2 28.2557 26.2 28.1V24.6664H22.7664C22.6112 24.6664 22.4779 24.6109 22.3664 24.5C22.2555 24.389 22.2 24.2557 22.2 24.1C22.2 23.9442 22.2555 23.8109 22.3664 23.7C22.4779 23.589 22.6112 23.5336 22.7664 23.5336H26.2V20.1C26.2 19.9442 26.2555 19.8109 26.3664 19.7C26.4779 19.589 26.6112 19.5336 26.7664 19.5336C26.9221 19.5336 27.0555 19.589 27.1664 19.7C27.2779 19.8109 27.3336 19.9442 27.3336 20.1V23.5336H30.7664C30.9221 23.5336 31.0555 23.589 31.1664 23.7C31.2779 23.8109 31.3336 23.9442 31.3336 24.1C31.3336 24.2557 31.2779 24.389 31.1664 24.5C31.0555 24.6109 30.9221 24.6664 30.7664 24.6664H27.3336V28.1C27.3336 28.2557 27.2779 28.389 27.1664 28.5C27.0555 28.6109 26.9221 28.6664 26.7664 28.6664ZM5.1336 24.2V7.79998V24.2Z" fill="#568196"/>
</svg>
