<svg width="24" height="24" viewBox="0 0 24 24" fill="none" xmlns="http://www.w3.org/2000/svg">
<path d="M12 21C10.75 21 9.575 20.7667 8.475 20.3C7.375 19.8333 6.421 19.196 5.613 18.388C4.80433 17.5793 4.16667 16.625 3.7 15.525C3.23333 14.425 3 13.25 3 12C3 10.7333 3.23333 9.554 3.7 8.462C4.16667 7.37067 4.80433 6.42067 5.613 5.612C6.421 4.804 7.375 4.16667 8.475 3.7C9.575 3.23333 10.75 3 12 3C13.2667 3 14.446 3.23333 15.538 3.7C16.6293 4.16667 17.5793 4.804 18.388 5.612C19.196 6.42067 19.8333 7.37067 20.3 8.462C20.7667 9.554 21 10.7333 21 12V13C21 13.8333 20.7127 14.5417 20.138 15.125C19.5627 15.7083 18.85 16 18 16C17.3333 16 16.7707 15.8373 16.312 15.512C15.854 15.1873 15.5083 14.75 15.275 14.2C14.9083 14.7333 14.475 15.1667 13.975 15.5C13.475 15.8333 12.8167 16 12 16C10.8833 16 9.93767 15.6123 9.163 14.837C8.38767 14.0623 8 13.1167 8 12C8 10.8833 8.38767 9.93733 9.163 9.162C9.93767 8.38733 10.8833 8 12 8C13.1167 8 14.0627 8.38733 14.838 9.162C15.6127 9.93733 16 10.8833 16 12V13C16 13.5667 16.1957 14.0417 16.587 14.425C16.979 14.8083 17.45 15 18 15C18.55 15 19.021 14.8083 19.413 14.425C19.8043 14.0417 20 13.5667 20 13V12C20 9.81667 19.2123 7.93733 17.637 6.362C16.0623 4.78733 14.1833 4 12 4C9.81667 4 7.93733 4.78733 6.362 6.362C4.78733 7.93733 4 9.81667 4 12C4 14.1833 4.78733 16.0623 6.362 17.637C7.93733 19.2123 9.81667 20 12 20H16.5C16.65 20 16.771 20.0457 16.863 20.137C16.9543 20.229 17 20.35 17 20.5C17 20.65 16.9543 20.771 16.863 20.863C16.771 20.9543 16.65 21 16.5 21H12ZM12 15C12.8333 15 13.5417 14.7083 14.125 14.125C14.7083 13.5417 15 12.8333 15 12C15 11.1667 14.7083 10.4583 14.125 9.875C13.5417 9.29167 12.8333 9 12 9C11.1667 9 10.4583 9.29167 9.875 9.875C9.29167 10.4583 9 11.1667 9 12C9 12.8333 9.29167 13.5417 9.875 14.125C10.4583 14.7083 11.1667 15 12 15Z" fill="#568196"/>
</svg>
