<svg width="24" height="24" viewBox="0 0 24 24" fill="none" xmlns="http://www.w3.org/2000/svg">
<path d="M12 14.15C11.8 14.15 11.621 14.075 11.463 13.925C11.3043 13.775 11.225 13.5917 11.225 13.375C11.225 13.175 11.3043 13 11.463 12.85C11.621 12.7 11.8 12.625 12 12.625C12.2 12.625 12.3793 12.7 12.538 12.85C12.696 13 12.775 13.175 12.775 13.375C12.775 13.5917 12.696 13.775 12.538 13.925C12.3793 14.075 12.2 14.15 12 14.15ZM8 14.15C7.8 14.15 7.621 14.075 7.463 13.925C7.30433 13.775 7.225 13.5917 7.225 13.375C7.225 13.175 7.30433 13 7.463 12.85C7.621 12.7 7.8 12.625 8 12.625C8.2 12.625 8.37933 12.7 8.538 12.85C8.696 13 8.775 13.175 8.775 13.375C8.775 13.5917 8.696 13.775 8.538 13.925C8.37933 14.075 8.2 14.15 8 14.15V14.15ZM16 14.15C15.8 14.15 15.621 14.075 15.463 13.925C15.3043 13.775 15.225 13.5917 15.225 13.375C15.225 13.175 15.3043 13 15.463 12.85C15.621 12.7 15.8 12.625 16 12.625C16.2 12.625 16.3793 12.7 16.538 12.85C16.696 13 16.775 13.175 16.775 13.375C16.775 13.5917 16.696 13.775 16.538 13.925C16.3793 14.075 16.2 14.15 16 14.15ZM12 18C11.8 18 11.621 17.925 11.463 17.775C11.3043 17.625 11.225 17.4417 11.225 17.225C11.225 17.025 11.3043 16.846 11.463 16.688C11.621 16.5294 11.8 16.45 12 16.45C12.2 16.45 12.3793 16.5294 12.538 16.688C12.696 16.846 12.775 17.025 12.775 17.225C12.775 17.4417 12.696 17.625 12.538 17.775C12.3793 17.925 12.2 18 12 18ZM8 18C7.8 18 7.621 17.925 7.463 17.775C7.30433 17.625 7.225 17.4417 7.225 17.225C7.225 17.025 7.30433 16.846 7.463 16.688C7.621 16.5294 7.8 16.45 8 16.45C8.2 16.45 8.37933 16.5294 8.538 16.688C8.696 16.846 8.775 17.025 8.775 17.225C8.775 17.4417 8.696 17.625 8.538 17.775C8.37933 17.925 8.2 18 8 18ZM16 18C15.8 18 15.621 17.925 15.463 17.775C15.3043 17.625 15.225 17.4417 15.225 17.225C15.225 17.025 15.3043 16.846 15.463 16.688C15.621 16.5294 15.8 16.45 16 16.45C16.2 16.45 16.3793 16.5294 16.538 16.688C16.696 16.846 16.775 17.025 16.775 17.225C16.775 17.4417 16.696 17.625 16.538 17.775C16.3793 17.925 16.2 18 16 18ZM5.625 21C5.15833 21 4.771 20.846 4.463 20.538C4.15433 20.2294 4 19.8417 4 19.375V6.62502C4 6.15836 4.15433 5.77102 4.463 5.46302C4.771 5.15436 5.15833 5.00002 5.625 5.00002H7.375V3.30002C7.375 3.15002 7.429 3.02502 7.537 2.92502C7.64567 2.82502 7.775 2.77502 7.925 2.77502C8.075 2.77502 8.2 2.82502 8.3 2.92502C8.4 3.02502 8.45 3.15002 8.45 3.30002V5.00002H15.625V3.27502C15.625 3.12502 15.6707 3.00402 15.762 2.91202C15.854 2.82069 15.975 2.77502 16.125 2.77502C16.2583 2.77502 16.375 2.82069 16.475 2.91202C16.575 3.00402 16.625 3.12502 16.625 3.27502V5.00002H18.375C18.8417 5.00002 19.2293 5.15436 19.538 5.46302C19.846 5.77102 20 6.15836 20 6.62502V19.375C20 19.8417 19.846 20.2294 19.538 20.538C19.2293 20.846 18.8417 21 18.375 21H5.625ZM5.625 20H18.375C18.5583 20 18.7083 19.9417 18.825 19.825C18.9417 19.7084 19 19.5584 19 19.375V10.625H5V19.375C5 19.5584 5.05833 19.7084 5.175 19.825C5.29167 19.9417 5.44167 20 5.625 20ZM5 9.62502H19V6.62502C19 6.44169 18.9417 6.29169 18.825 6.17502C18.7083 6.05836 18.5583 6.00002 18.375 6.00002H5.625C5.44167 6.00002 5.29167 6.05836 5.175 6.17502C5.05833 6.29169 5 6.44169 5 6.62502V9.62502ZM5 9.62502V6.00002V9.62502Z" fill="#568196"/>
</svg>
