<svg width="24" height="24" viewBox="0 0 24 24" fill="none" xmlns="http://www.w3.org/2000/svg">
<path d="M18.9 19.875C17.1667 19.875 15.4127 19.4333 13.638 18.55C11.8627 17.6667 10.2667 16.5127 8.85005 15.088C7.43338 13.6627 6.27938 12.0667 5.38805 10.3C4.49605 8.53333 4.05005 6.78333 4.05005 5.05C4.05005 4.75 4.15005 4.5 4.35005 4.3C4.55005 4.1 4.80005 4 5.10005 4H7.55005C7.85005 4 8.10005 4.08333 8.30005 4.25C8.50005 4.41667 8.62505 4.64167 8.67505 4.925L9.17505 7.3C9.22505 7.56667 9.22105 7.804 9.16305 8.012C9.10438 8.22067 8.99172 8.4 8.82505 8.55L6.65005 10.6C7.53338 12.0833 8.53772 13.379 9.66305 14.487C10.7877 15.5957 12.1 16.575 13.6 17.425L15.725 15.225C15.8917 15.0583 16.0794 14.9417 16.288 14.875C16.496 14.8083 16.7167 14.8 16.95 14.85L19.05 15.275C19.3167 15.3417 19.5334 15.475 19.7 15.675C19.8667 15.875 19.95 16.1167 19.95 16.4V18.825C19.95 19.125 19.85 19.375 19.65 19.575C19.45 19.775 19.2 19.875 18.9 19.875V19.875ZM6.15005 9.65L8.07505 7.9C8.14172 7.83333 8.18338 7.75833 8.20005 7.675C8.21672 7.59167 8.21672 7.50833 8.20005 7.425L7.75005 5.3C7.71672 5.2 7.67105 5.125 7.61305 5.075C7.55438 5.025 7.47505 5 7.37505 5H5.32505C5.24172 5 5.17505 5.025 5.12505 5.075C5.07505 5.125 5.05005 5.19167 5.05005 5.275C5.06672 5.95833 5.17105 6.67067 5.36305 7.412C5.55438 8.154 5.81672 8.9 6.15005 9.65V9.65ZM18.7 18.875C18.7667 18.875 18.825 18.85 18.875 18.8C18.925 18.75 18.95 18.6833 18.95 18.6V16.6C18.95 16.5 18.925 16.4167 18.875 16.35C18.825 16.2833 18.75 16.2333 18.65 16.2L16.8 15.825C16.7334 15.8083 16.671 15.8083 16.613 15.825C16.5544 15.8417 16.4917 15.8833 16.425 15.95L14.525 17.875C15.2084 18.2083 15.9334 18.4543 16.7 18.613C17.4667 18.771 18.1334 18.8583 18.7 18.875V18.875Z" fill="#568196"/>
</svg>
