<svg width="24" height="24" viewBox="0 0 24 24" fill="none" xmlns="http://www.w3.org/2000/svg">
<path d="M7.3 21.125C6.88333 21.125 6.52933 20.9793 6.238 20.688C5.946 20.396 5.8 20.0417 5.8 19.625C5.8 19.1917 5.946 18.8333 6.238 18.55C6.52933 18.2667 6.88333 18.125 7.3 18.125C7.73333 18.125 8.09167 18.2667 8.375 18.55C8.65833 18.8333 8.8 19.1917 8.8 19.625C8.8 20.0417 8.65833 20.396 8.375 20.688C8.09167 20.9793 7.73333 21.125 7.3 21.125ZM16.7 21.125C16.2667 21.125 15.9083 20.9793 15.625 20.688C15.3417 20.396 15.2 20.0417 15.2 19.625C15.2 19.1917 15.3417 18.8333 15.625 18.55C15.9083 18.2667 16.2667 18.125 16.7 18.125C17.1167 18.125 17.4707 18.2667 17.762 18.55C18.054 18.8333 18.2 19.1917 18.2 19.625C18.2 20.0417 18.054 20.396 17.762 20.688C17.4707 20.9793 17.1167 21.125 16.7 21.125ZM5.875 5.5L8.55 11.125H15.55L18.35 6.05C18.4167 5.9 18.4167 5.77067 18.35 5.662C18.2833 5.554 18.175 5.5 18.025 5.5H5.875ZM7.3 16.125C6.71667 16.125 6.28333 15.879 6 15.387C5.71667 14.8957 5.70833 14.4 5.975 13.9L7.475 11.225L3.8 3.5H2.475C2.34167 3.5 2.22933 3.454 2.138 3.362C2.046 3.27067 2 3.15 2 3C2 2.85 2.046 2.729 2.138 2.637C2.22933 2.54567 2.35 2.5 2.5 2.5H3.925C4.09167 2.5 4.23733 2.54167 4.362 2.625C4.48733 2.70833 4.58333 2.81667 4.65 2.95L5.4 4.5H18.4C18.8833 4.5 19.2293 4.675 19.438 5.025C19.646 5.375 19.6417 5.74167 19.425 6.125L16.575 11.325C16.425 11.5917 16.2377 11.7917 16.013 11.925C15.7877 12.0583 15.5333 12.125 15.25 12.125H8.1L6.875 14.35C6.775 14.5 6.775 14.6667 6.875 14.85C6.975 15.0333 7.11667 15.125 7.3 15.125H17.725C17.8417 15.125 17.95 15.1707 18.05 15.262C18.15 15.354 18.2 15.475 18.2 15.625C18.2 15.7583 18.15 15.875 18.05 15.975C17.95 16.075 17.8333 16.125 17.7 16.125H7.3Z" fill="#568196"/>
</svg>
