<svg width="24" height="24" viewBox="0 0 24 24" fill="none" xmlns="http://www.w3.org/2000/svg">
<path d="M5.625 20C5.15833 20 4.771 19.846 4.463 19.538C4.15433 19.2293 4 18.8417 4 18.375V5.625C4 5.15833 4.15433 4.771 4.463 4.463C4.771 4.15433 5.15833 4 5.625 4H18.375C18.8417 4 19.2293 4.15433 19.538 4.463C19.846 4.771 20 5.15833 20 5.625V18.375C20 18.8417 19.846 19.2293 19.538 19.538C19.2293 19.846 18.8417 20 18.375 20H5.625ZM5.625 19H18.375C18.5583 19 18.7083 18.9417 18.825 18.825C18.9417 18.7083 19 18.5583 19 18.375V5.625C19 5.44167 18.9417 5.29167 18.825 5.175C18.7083 5.05833 18.5583 5 18.375 5H5.625C5.44167 5 5.29167 5.05833 5.175 5.175C5.05833 5.29167 5 5.44167 5 5.625V18.375C5 18.5583 5.05833 18.7083 5.175 18.825C5.29167 18.9417 5.44167 19 5.625 19ZM10.6 15.175C10.7 15.175 10.7957 15.1583 10.887 15.125C10.979 15.0917 11.075 15.0333 11.175 14.95L16.675 9.45C16.7583 9.35 16.8 9.23733 16.8 9.112C16.8 8.98733 16.75 8.86667 16.65 8.75C16.5333 8.65 16.4127 8.6 16.288 8.6C16.1627 8.6 16.0417 8.65 15.925 8.75L10.6 14.1L8.075 11.575C7.99167 11.475 7.88333 11.425 7.75 11.425C7.61667 11.425 7.5 11.4833 7.4 11.6C7.28333 11.7 7.225 11.8167 7.225 11.95C7.225 12.0833 7.28333 12.2 7.4 12.3L10.025 14.95C10.125 15.0333 10.2207 15.0917 10.312 15.125C10.404 15.1583 10.5 15.175 10.6 15.175ZM5 19V5V19Z" fill="#568196"/>
</svg>
