<svg width="24" height="24" viewBox="0 0 24 24" fill="none" xmlns="http://www.w3.org/2000/svg">
<path d="M12 12.7L6.75 17.95C6.66667 18.05 6.554 18.1043 6.412 18.113C6.27067 18.121 6.15 18.0667 6.05 17.95C5.93333 17.85 5.875 17.7333 5.875 17.6C5.875 17.4667 5.93333 17.35 6.05 17.25L11.3 12L6.05 6.75C5.95 6.66667 5.896 6.554 5.888 6.412C5.87933 6.27067 5.93333 6.15 6.05 6.05C6.15 5.93333 6.26667 5.875 6.4 5.875C6.53333 5.875 6.65 5.93333 6.75 6.05L12 11.3L17.25 6.05C17.3333 5.95 17.4457 5.89567 17.587 5.887C17.729 5.879 17.85 5.93333 17.95 6.05C18.0667 6.15 18.125 6.26667 18.125 6.4C18.125 6.53333 18.0667 6.65 17.95 6.75L12.7 12L17.95 17.25C18.05 17.3333 18.1043 17.4457 18.113 17.587C18.121 17.729 18.0667 17.85 17.95 17.95C17.85 18.0667 17.7333 18.125 17.6 18.125C17.4667 18.125 17.35 18.0667 17.25 17.95L12 12.7Z" fill="#568196"/>
</svg>
