<svg width="20" height="20" viewBox="0 0 20 20" fill="none" xmlns="http://www.w3.org/2000/svg">
<path d="M10 10.646L5.688 14.958C5.604 15.0553 5.503 15.104 5.385 15.104C5.267 15.104 5.15933 15.0487 5.062 14.938C4.95133 14.8407 4.896 14.733 4.896 14.615C4.896 14.497 4.95133 14.3893 5.062 14.292L9.354 10L5.042 5.688C4.94466 5.604 4.896 5.49967 4.896 5.375C4.896 5.25033 4.95133 5.13933 5.062 5.042C5.15933 4.93067 5.267 4.875 5.385 4.875C5.503 4.875 5.61066 4.93067 5.708 5.042L10 9.354L14.312 5.042C14.396 4.94467 14.5003 4.89233 14.625 4.885C14.7497 4.87833 14.8607 4.93067 14.958 5.042C15.0693 5.13933 15.125 5.247 15.125 5.365C15.125 5.483 15.0693 5.59067 14.958 5.688L10.646 10L14.958 14.312C15.0553 14.396 15.1077 14.497 15.115 14.615C15.1217 14.733 15.0693 14.8407 14.958 14.938C14.8607 15.0487 14.753 15.104 14.635 15.104C14.517 15.104 14.4093 15.0487 14.312 14.938L10 10.646Z" fill="#568196"/>
</svg>
