<svg width="32" height="32" viewBox="0 0 32 32" fill="none" xmlns="http://www.w3.org/2000/svg">
<path d="M28 8.59998V23.4C28 23.9333 27.8112 24.3888 27.4336 24.7664C27.0555 25.1445 26.5997 25.3336 26.0664 25.3336H5.9336C5.40027 25.3336 4.94453 25.1445 4.5664 24.7664C4.1888 24.3888 4 23.9333 4 23.4V8.59998C4 8.06665 4.1888 7.61118 4.5664 7.23358C4.94453 6.85545 5.40027 6.66638 5.9336 6.66638H26.0664C26.5997 6.66638 27.0555 6.85545 27.4336 7.23358C27.8112 7.61118 28 8.06665 28 8.59998ZM5.1336 11.8336H26.8664V8.59998C26.8664 8.39998 26.7832 8.21652 26.6168 8.04958C26.4499 7.88318 26.2664 7.79998 26.0664 7.79998H5.9336C5.7336 7.79998 5.55013 7.88318 5.3832 8.04958C5.2168 8.21652 5.1336 8.39998 5.1336 8.59998V11.8336ZM5.1336 14.7V23.4C5.1336 23.6 5.2168 23.7834 5.3832 23.9504C5.55013 24.1168 5.7336 24.2 5.9336 24.2H26.0664C26.2664 24.2 26.4499 24.1168 26.6168 23.9504C26.7832 23.7834 26.8664 23.6 26.8664 23.4V14.7H5.1336ZM5.1336 24.2V7.79998V24.2Z" fill="#568196"/>
</svg>
