<svg width="16" height="16" viewBox="0 0 16 16" fill="none" xmlns="http://www.w3.org/2000/svg">
<path d="M4.91684 13.6664C4.56111 13.6664 4.26111 13.5443 4.01684 13.3C3.77204 13.0557 3.64964 12.7557 3.64964 12.4V4.10001H3.48324C3.33871 4.10001 3.21364 4.04721 3.10804 3.94161C3.00297 3.83601 2.95044 3.71094 2.95044 3.56641C2.95044 3.42241 3.00297 3.29761 3.10804 3.19201C3.21364 3.08641 3.33871 3.03361 3.48324 3.03361H6.01684C6.01684 2.86668 6.08057 2.72214 6.20804 2.60001C6.33604 2.47788 6.48324 2.41681 6.64964 2.41681H9.33364C9.50004 2.41681 9.64724 2.47788 9.77524 2.60001C9.90271 2.72214 9.96644 2.86668 9.96644 3.03361H12.5C12.6446 3.03361 12.7696 3.08641 12.8752 3.19201C12.9808 3.29761 13.0336 3.42241 13.0336 3.56641C13.0336 3.71094 12.9808 3.83601 12.8752 3.94161C12.7696 4.04721 12.6446 4.10001 12.5 4.10001H12.3336V12.4C12.3336 12.7557 12.2112 13.0557 11.9664 13.3C11.7222 13.5443 11.4222 13.6664 11.0664 13.6664H4.91684ZM4.71684 4.10001V12.4C4.71684 12.4555 4.73631 12.5027 4.77524 12.5416C4.81417 12.5805 4.86137 12.6 4.91684 12.6H11.0664C11.1224 12.6 11.1696 12.5805 11.208 12.5416C11.247 12.5027 11.2664 12.4555 11.2664 12.4V4.10001H4.71684ZM6.23364 10.6664C6.23364 10.8109 6.28644 10.936 6.39204 11.0416C6.49764 11.1472 6.62244 11.2 6.76644 11.2C6.91097 11.2 7.03604 11.1472 7.14164 11.0416C7.24724 10.936 7.30004 10.8109 7.30004 10.6664V6.03361C7.30004 5.88908 7.24724 5.76401 7.14164 5.65841C7.03604 5.55281 6.91097 5.50001 6.76644 5.50001C6.62244 5.50001 6.49764 5.55281 6.39204 5.65841C6.28644 5.76401 6.23364 5.88908 6.23364 6.03361V10.6664ZM8.68324 10.6664C8.68324 10.8109 8.73604 10.936 8.84164 11.0416C8.94724 11.1472 9.07231 11.2 9.21684 11.2C9.36137 11.2 9.48644 11.1472 9.59204 11.0416C9.69764 10.936 9.75044 10.8109 9.75044 10.6664V6.03361C9.75044 5.88908 9.69764 5.76401 9.59204 5.65841C9.48644 5.55281 9.36137 5.50001 9.21684 5.50001C9.07231 5.50001 8.94724 5.55281 8.84164 5.65841C8.73604 5.76401 8.68324 5.88908 8.68324 6.03361V10.6664ZM4.71684 4.10001V12.4C4.71684 12.4555 4.73631 12.5027 4.77524 12.5416C4.81417 12.5805 4.86137 12.6 4.91684 12.6H4.71684V4.10001Z" fill="#568196"/>
</svg>
