<svg width="24" height="24" viewBox="0 0 24 24" fill="none" xmlns="http://www.w3.org/2000/svg">
<path d="M7.625 20C7.15833 20 6.771 19.846 6.463 19.538C6.15433 19.2293 6 18.8416 6 18.375V5.99998H5.5C5.35 5.99998 5.22933 5.95398 5.138 5.86198C5.046 5.77064 5 5.64998 5 5.49998C5 5.34998 5.046 5.22898 5.138 5.13698C5.22933 5.04564 5.35 4.99998 5.5 4.99998H9C9 4.78331 9.07933 4.59998 9.238 4.44998C9.396 4.29998 9.58333 4.22498 9.8 4.22498H14.2C14.4167 4.22498 14.604 4.29998 14.762 4.44998C14.9207 4.59998 15 4.78331 15 4.99998H18.5C18.65 4.99998 18.771 5.04564 18.863 5.13698C18.9543 5.22898 19 5.34998 19 5.49998C19 5.64998 18.9543 5.77064 18.863 5.86198C18.771 5.95398 18.65 5.99998 18.5 5.99998H18V18.375C18 18.8416 17.846 19.2293 17.538 19.538C17.2293 19.846 16.8417 20 16.375 20H7.625ZM7 5.99998V18.375C7 18.5583 7.05833 18.7083 7.175 18.825C7.29167 18.9416 7.44167 19 7.625 19H16.375C16.5583 19 16.7083 18.9416 16.825 18.825C16.9417 18.7083 17 18.5583 17 18.375V5.99998H7ZM9.8 16.5C9.8 16.65 9.85 16.771 9.95 16.863C10.05 16.9543 10.1667 17 10.3 17C10.45 17 10.571 16.9543 10.663 16.863C10.7543 16.771 10.8 16.65 10.8 16.5V8.49998C10.8 8.34998 10.7543 8.22898 10.663 8.13698C10.571 8.04564 10.45 7.99998 10.3 7.99998C10.1667 7.99998 10.05 8.04564 9.95 8.13698C9.85 8.22898 9.8 8.34998 9.8 8.49998V16.5ZM13.2 16.5C13.2 16.65 13.246 16.771 13.338 16.863C13.4293 16.9543 13.55 17 13.7 17C13.8333 17 13.95 16.9543 14.05 16.863C14.15 16.771 14.2 16.65 14.2 16.5V8.49998C14.2 8.34998 14.15 8.22898 14.05 8.13698C13.95 8.04564 13.8333 7.99998 13.7 7.99998C13.55 7.99998 13.4293 8.04564 13.338 8.13698C13.246 8.22898 13.2 8.34998 13.2 8.49998V16.5ZM7 5.99998V18.375C7 18.5583 7.05833 18.7083 7.175 18.825C7.29167 18.9416 7.44167 19 7.625 19H7V5.99998Z" fill="#568196"/>
</svg>
