<svg width="24" height="24" viewBox="0 0 24 24" fill="none" xmlns="http://www.w3.org/2000/svg">
<path d="M5.69995 19.125C4.96662 19.125 4.34595 18.871 3.83795 18.363C3.32928 17.8543 3.07495 17.2333 3.07495 16.5C2.69162 16.45 2.36662 16.271 2.09995 15.963C1.83328 15.6543 1.69995 15.2917 1.69995 14.875V6.625C1.69995 6.15833 1.85428 5.771 2.16295 5.463C2.47095 5.15433 2.84995 5 3.29995 5H14.925C15.375 5 15.7583 5.15833 16.075 5.475C16.3916 5.79167 16.55 6.175 16.55 6.625V8.625H18.45C18.5666 8.625 18.6833 8.65 18.7999 8.7C18.9166 8.75 19.0166 8.83333 19.1 8.95L22.15 13.05C22.2 13.1167 22.2376 13.1917 22.263 13.275C22.2876 13.3583 22.2999 13.4417 22.2999 13.525V15.7C22.2999 15.9167 22.225 16.104 22.075 16.262C21.925 16.4207 21.7333 16.5 21.5 16.5H20.7C20.7 17.2333 20.446 17.8543 19.938 18.363C19.4293 18.871 18.8083 19.125 18.075 19.125C17.3416 19.125 16.721 18.871 16.213 18.363C15.7043 17.8543 15.45 17.2333 15.45 16.5H8.29995C8.29995 17.2333 8.04595 17.8543 7.53795 18.363C7.02928 18.871 6.41662 19.125 5.69995 19.125ZM5.69995 18.125C6.14995 18.125 6.52928 17.9623 6.83795 17.637C7.14595 17.3123 7.29995 16.9333 7.29995 16.5C7.29995 16.05 7.14595 15.6667 6.83795 15.35C6.52928 15.0333 6.14995 14.875 5.69995 14.875C5.24995 14.875 4.86662 15.0333 4.54995 15.35C4.23328 15.6667 4.07495 16.05 4.07495 16.5C4.07495 16.9333 4.23328 17.3123 4.54995 17.637C4.86662 17.9623 5.24995 18.125 5.69995 18.125V18.125ZM2.69995 6.625V14.875C2.69995 14.9583 2.71262 15.0333 2.73795 15.1C2.76262 15.1667 2.79162 15.229 2.82495 15.287C2.85828 15.3457 2.90428 15.3917 2.96295 15.425C3.02095 15.4583 3.08328 15.4833 3.14995 15.5H3.34995C3.48328 15.0667 3.77095 14.6877 4.21295 14.363C4.65428 14.0377 5.14995 13.875 5.69995 13.875C6.21662 13.875 6.69995 14.0333 7.14995 14.35C7.59995 14.6667 7.89995 15.05 8.04995 15.5H15.55V6.625C15.55 6.44167 15.4916 6.29167 15.375 6.175C15.2583 6.05833 15.1083 6 14.925 6H3.29995C3.13328 6 2.99162 6.05833 2.87495 6.175C2.75828 6.29167 2.69995 6.44167 2.69995 6.625ZM18.075 18.125C18.525 18.125 18.9083 17.9623 19.225 17.637C19.5416 17.3123 19.7 16.9333 19.7 16.5C19.7 16.05 19.5416 15.6667 19.225 15.35C18.9083 15.0333 18.525 14.875 18.075 14.875C17.6416 14.875 17.2626 15.0333 16.938 15.35C16.6126 15.6667 16.45 16.05 16.45 16.5C16.45 16.9333 16.6126 17.3123 16.938 17.637C17.2626 17.9623 17.6416 18.125 18.075 18.125ZM16.55 13.5H21.25L18.2999 9.625H16.55V13.5Z" fill="#568196"/>
</svg>
