<svg width="24" height="24" viewBox="0 0 24 24" fill="none" xmlns="http://www.w3.org/2000/svg">
<path d="M9.5499 16.975C9.4499 16.975 9.3539 16.9583 9.2619 16.925C9.17057 16.8917 9.0749 16.8333 8.9749 16.75L4.9249 12.7C4.8249 12.5833 4.7749 12.4623 4.7749 12.337C4.7749 12.2123 4.83324 12.0917 4.9499 11.975C5.0499 11.875 5.16657 11.825 5.2999 11.825C5.43324 11.825 5.5499 11.875 5.6499 11.975L9.5499 15.875L18.3499 7.07499C18.4499 6.97499 18.5666 6.92499 18.6999 6.92499C18.8332 6.92499 18.9582 6.97499 19.0749 7.07499C19.1749 7.19165 19.2249 7.31265 19.2249 7.43799C19.2249 7.56265 19.1749 7.68332 19.0749 7.79999L10.1249 16.75C10.0249 16.8333 9.92924 16.8917 9.8379 16.925C9.7459 16.9583 9.6499 16.975 9.5499 16.975V16.975Z" fill="#568196"/>
</svg>
