<svg width="48" height="48" viewBox="0 0 48 48" fill="none" xmlns="http://www.w3.org/2000/svg">
<path d="M18.8999 35.3C18.6666 35.3 18.4582 35.2583 18.2749 35.175C18.0916 35.0916 17.8999 34.9666 17.6999 34.8L8.6499 25.75C8.31657 25.4166 8.1499 25 8.1499 24.5C8.1499 24 8.31657 23.5833 8.6499 23.25C8.98324 22.9166 9.38324 22.75 9.8499 22.75C10.3166 22.75 10.7166 22.9166 11.0499 23.25L18.8999 31.1L36.8999 13.1C37.2332 12.7666 37.6332 12.6 38.0999 12.6C38.5666 12.6 38.9832 12.7666 39.3499 13.1C39.6832 13.4333 39.8499 13.8416 39.8499 14.325C39.8499 14.8083 39.6832 15.2166 39.3499 15.55L20.0999 34.8C19.8999 34.9666 19.7082 35.0916 19.5249 35.175C19.3416 35.2583 19.1332 35.3 18.8999 35.3V35.3Z" fill="#568196"/>
</svg>
