<svg width="24" height="24" viewBox="0 0 24 24" fill="none" xmlns="http://www.w3.org/2000/svg">
<path d="M9.54998 17.275C9.43332 17.275 9.32098 17.254 9.21298 17.212C9.10432 17.1707 9.00832 17.1084 8.92498 17.025L4.74998 12.85C4.59998 12.7 4.52898 12.5207 4.53698 12.312C4.54565 12.104 4.61665 11.925 4.74998 11.775C4.89998 11.625 5.07932 11.55 5.28798 11.55C5.49598 11.55 5.66665 11.625 5.79998 11.775L9.54998 15.525L18.2 6.87502C18.3333 6.72502 18.5083 6.65002 18.725 6.65002C18.9417 6.65002 19.1167 6.72502 19.25 6.87502C19.4 7.02502 19.475 7.20402 19.475 7.41202C19.475 7.62069 19.4 7.80002 19.25 7.95002L10.175 17.025C10.0917 17.1084 9.99598 17.1707 9.88798 17.212C9.77932 17.254 9.66665 17.275 9.54998 17.275Z" fill="#568196"/>
</svg>
