<svg width="20" height="20" viewBox="0 0 20 20" fill="none" xmlns="http://www.w3.org/2000/svg">
<path d="M4.50001 15.75H5.45801L13.521 7.688L12.562 6.729L4.50001 14.792V15.75ZM15.458 7.083L13.188 4.792L14.062 3.917C14.2427 3.72233 14.458 3.625 14.708 3.625C14.958 3.625 15.1803 3.72233 15.375 3.917L16.333 4.896C16.5137 5.06267 16.597 5.285 16.583 5.563C16.569 5.84033 16.4787 6.06233 16.312 6.229L15.458 7.083ZM4.31201 16.667C4.11801 16.667 3.94801 16.5973 3.80201 16.458C3.65601 16.3193 3.58301 16.1527 3.58301 15.958V14.667C3.58301 14.5837 3.60034 14.5037 3.63501 14.427C3.67034 14.3503 3.72267 14.2707 3.79201 14.188L12.562 5.417L14.833 7.688L6.06201 16.458C5.99267 16.5413 5.92001 16.597 5.84401 16.625C5.76734 16.653 5.68034 16.667 5.58301 16.667H4.31201ZM13.042 7.208L12.562 6.729L13.521 7.688L13.042 7.208Z" fill="#568196"/>
</svg>
