<svg width="24" height="24" viewBox="0 0 24 24" fill="none" xmlns="http://www.w3.org/2000/svg">
<path d="M5.30005 19H6.37505L16.275 9.1L15.2 8.025L5.30005 17.925V19ZM18.425 8.375L15.925 5.9L17.15 4.675C17.3334 4.475 17.5667 4.375 17.85 4.375C18.1334 4.375 18.375 4.475 18.575 4.675L19.625 5.75C19.825 5.93333 19.925 6.16667 19.925 6.45C19.925 6.73333 19.8334 6.96667 19.65 7.15L18.425 8.375ZM5.12505 20C4.89172 20 4.69572 19.925 4.53705 19.775C4.37905 19.625 4.30005 19.4333 4.30005 19.2V17.825C4.30005 17.725 4.32072 17.6293 4.36205 17.538C4.40405 17.446 4.46672 17.35 4.55005 17.25L15.2 6.6L17.7 9.1L7.05005 19.75C6.96672 19.85 6.87938 19.9167 6.78805 19.95C6.69605 19.9833 6.59172 20 6.47505 20H5.12505ZM15.725 8.55L15.2 8.025L16.275 9.1L15.725 8.55Z" fill="#568196"/>
</svg>
