<svg width="24" height="24" viewBox="0 0 24 24" fill="none" xmlns="http://www.w3.org/2000/svg">
<path d="M10.925 18.675L9.75 17.625C7.96667 16.0084 6.39567 14.4374 5.037 12.912C3.679 11.3874 3 9.80002 3 8.15002C3 6.88336 3.43333 5.81669 4.3 4.95002C5.16667 4.08336 6.23333 3.65002 7.5 3.65002C8.23333 3.65002 8.996 3.83336 9.788 4.20002C10.5793 4.56669 11.3167 5.26669 12 6.30002C12.6833 5.26669 13.421 4.56669 14.213 4.20002C15.0043 3.83336 15.7667 3.65002 16.5 3.65002C17.7667 3.65002 18.8333 4.08336 19.7 4.95002C20.5667 5.81669 21 6.88336 21 8.15002C21 9.83336 20.2917 11.454 18.875 13.012C17.4583 14.5707 15.9083 16.1084 14.225 17.625L13.075 18.675C12.775 18.9584 12.4167 19.1 12 19.1C11.5833 19.1 11.225 18.9584 10.925 18.675V18.675Z" fill="#568196"/>
</svg>
