<svg width="24" height="24" viewBox="0 0 24 24" fill="none" xmlns="http://www.w3.org/2000/svg">
<path d="M10.925 18.675L9.75 17.625C7.96667 16.0084 6.39567 14.4374 5.037 12.912C3.679 11.3874 3 9.80002 3 8.15002C3 6.88336 3.43333 5.81669 4.3 4.95002C5.16667 4.08336 6.23333 3.65002 7.5 3.65002C8.23333 3.65002 8.996 3.83336 9.788 4.20002C10.5793 4.56669 11.3167 5.26669 12 6.30002C12.6833 5.26669 13.421 4.56669 14.213 4.20002C15.0043 3.83336 15.7667 3.65002 16.5 3.65002C17.7667 3.65002 18.8333 4.08336 19.7 4.95002C20.5667 5.81669 21 6.88336 21 8.15002C21 9.83336 20.2917 11.454 18.875 13.012C17.4583 14.5707 15.9083 16.1084 14.225 17.625L13.075 18.675C12.775 18.9417 12.4167 19.079 12 19.087C11.5833 19.0957 11.225 18.9584 10.925 18.675V18.675ZM11.5 7.32502C10.9167 6.35836 10.3 5.67069 9.65 5.26202C9 4.85402 8.28333 4.65002 7.5 4.65002C6.5 4.65002 5.66667 4.98336 5 5.65002C4.33333 6.31669 4 7.15002 4 8.15002C4 8.88336 4.20833 9.63736 4.625 10.412C5.04167 11.1874 5.604 11.9834 6.312 12.8C7.02067 13.6167 7.82933 14.45 8.738 15.3C9.646 16.15 10.6 17.025 11.6 17.925C11.7167 18.0417 11.85 18.1 12 18.1C12.15 18.1 12.2833 18.0417 12.4 17.925C13.4 17.025 14.354 16.15 15.262 15.3C16.1707 14.45 16.9793 13.6167 17.688 12.8C18.396 11.9834 18.9583 11.1874 19.375 10.412C19.7917 9.63736 20 8.88336 20 8.15002C20 7.15002 19.6667 6.31669 19 5.65002C18.3333 4.98336 17.5 4.65002 16.5 4.65002C15.7167 4.65002 15 4.85402 14.35 5.26202C13.7 5.67069 13.0833 6.35836 12.5 7.32502C12.4333 7.40836 12.3583 7.47502 12.275 7.52502C12.1917 7.57502 12.1 7.60002 12 7.60002C11.9 7.60002 11.8083 7.57502 11.725 7.52502C11.6417 7.47502 11.5667 7.40836 11.5 7.32502V7.32502Z" fill="#568196"/>
</svg>
