<svg width="24" height="24" viewBox="0 0 24 24" fill="none" xmlns="http://www.w3.org/2000/svg">
<path d="M11.9999 17.7L8.09993 20.025C7.9666 20.1083 7.82493 20.1456 7.67493 20.137C7.52493 20.129 7.3916 20.0833 7.27493 20C7.15827 19.9166 7.0666 19.8043 6.99993 19.663C6.93327 19.521 6.92493 19.3666 6.97493 19.2L7.99993 14.8L4.57493 11.825C4.4416 11.7083 4.35826 11.575 4.32493 11.425C4.2916 11.275 4.29993 11.1333 4.34993 11C4.39993 10.8666 4.47926 10.754 4.58793 10.662C4.69593 10.5706 4.83327 10.5166 4.99993 10.5L9.52493 10.1L11.2999 5.92498C11.3666 5.77498 11.4626 5.66231 11.5879 5.58698C11.7126 5.51231 11.8499 5.47498 11.9999 5.47498C12.1499 5.47498 12.2876 5.51231 12.4129 5.58698C12.5376 5.66231 12.6333 5.77498 12.6999 5.92498L14.4749 10.1L18.9999 10.5C19.1666 10.5166 19.3043 10.5706 19.4129 10.662C19.5209 10.754 19.5999 10.8666 19.6499 11C19.6999 11.1333 19.7083 11.275 19.6749 11.425C19.6416 11.575 19.5583 11.7083 19.4249 11.825L15.9999 14.8L17.0249 19.2C17.0749 19.3666 17.0666 19.521 16.9999 19.663C16.9333 19.8043 16.8416 19.9166 16.7249 20C16.6083 20.0833 16.4749 20.129 16.3249 20.137C16.1749 20.1456 16.0333 20.1083 15.8999 20.025L11.9999 17.7Z" fill="#568196"/>
</svg>
