<svg width="48" height="48" viewBox="0 0 48 48" fill="none" xmlns="http://www.w3.org/2000/svg">
<path d="M24 34.6L15.35 41.2C15.05 41.4333 14.75 41.5333 14.45 41.5C14.15 41.4667 13.8667 41.3667 13.6 41.2C13.3334 41.0333 13.1417 40.8083 13.025 40.525C12.9084 40.2417 12.9 39.9167 13 39.55L16.3 28.8L7.80003 22.7C7.50003 22.5 7.30836 22.2417 7.22503 21.925C7.1417 21.6083 7.15003 21.3167 7.25003 21.05C7.35003 20.7833 7.5167 20.5417 7.75003 20.325C7.98336 20.1083 8.28336 20 8.65003 20H19.2L22.55 8.80001C22.65 8.43335 22.8417 8.15835 23.125 7.97501C23.4084 7.79168 23.7 7.70001 24 7.70001C24.3 7.70001 24.5917 7.79168 24.875 7.97501C25.1584 8.15835 25.35 8.43335 25.45 8.80001L28.8 20H39.35C39.7167 20 40.0167 20.1083 40.25 20.325C40.4834 20.5417 40.65 20.7833 40.75 21.05C40.85 21.3167 40.8584 21.6083 40.775 21.925C40.6917 22.2417 40.5 22.5 40.2 22.7L31.7 28.8L35 39.55C35.1 39.9167 35.0917 40.2417 34.975 40.525C34.8584 40.8083 34.6667 41.0333 34.4 41.2C34.1334 41.3667 33.85 41.4667 33.55 41.5C33.25 41.5333 32.95 41.4333 32.65 41.2L24 34.6Z" fill="#568196"/>
</svg>
