<svg width="16" height="16" viewBox="0 0 16 16" fill="none" xmlns="http://www.w3.org/2000/svg">
<path d="M5.27523 12.9254C5.13658 13.0215 4.99792 13.0248 4.85927 12.9353C4.72062 12.8463 4.67902 12.7194 4.73448 12.5547L5.75358 9.19821L3.15383 7.34492C3.01518 7.2351 2.97025 7.10111 3.01906 6.94297C3.06731 6.78537 3.18156 6.70657 3.36181 6.70657H6.6063L7.667 3.2471C7.69473 3.16474 7.73966 3.10296 7.80177 3.06178C7.86445 3.02059 7.93044 3 7.99977 3C8.0691 3 8.1351 3.02059 8.19777 3.06178C8.25988 3.10296 8.30481 3.16474 8.33254 3.2471L9.39324 6.70657H12.6377C12.818 6.70657 12.9325 6.78537 12.9813 6.94297C13.0296 7.10111 12.9844 7.2351 12.8457 7.34492L10.246 9.19821L11.2651 12.5547C11.3205 12.7194 11.2789 12.8463 11.1403 12.9353C11.0016 13.0248 10.863 13.0215 10.7243 12.9254L7.99977 10.8868L5.27523 12.9254Z" fill="#568196"/>
</svg>
