<svg width="24" height="24" viewBox="0 0 24 24" fill="none" xmlns="http://www.w3.org/2000/svg">
<path d="M12.8001 11.7L15.5501 14.45C15.6834 14.5833 15.7501 14.7543 15.7501 14.963C15.7501 15.171 15.6834 15.35 15.5501 15.5C15.4001 15.65 15.2211 15.725 15.0131 15.725C14.8044 15.725 14.6251 15.65 14.4751 15.5L11.5501 12.575C11.4668 12.475 11.4044 12.3707 11.3631 12.262C11.3211 12.154 11.3001 12.0417 11.3001 11.925V7.75C11.3001 7.53333 11.3711 7.35433 11.5131 7.213C11.6544 7.071 11.8334 7 12.0501 7C12.2501 7 12.4251 7.071 12.5751 7.213C12.7251 7.35433 12.8001 7.53333 12.8001 7.75V11.7ZM11.9751 20.5C10.0251 20.5 8.28775 19.9127 6.76308 18.738C5.23775 17.5627 4.24175 16.0417 3.77508 14.175C3.70842 13.9583 3.72942 13.75 3.83808 13.55C3.94608 13.35 4.10842 13.225 4.32508 13.175C4.54175 13.125 4.73342 13.1667 4.90008 13.3C5.06675 13.4333 5.18342 13.6083 5.25008 13.825C5.65008 15.3583 6.47508 16.604 7.72508 17.562C8.97508 18.5207 10.3917 19 11.9751 19C13.9251 19 15.5794 18.3207 16.9381 16.962C18.2961 15.604 18.9751 13.95 18.9751 12C18.9751 10.05 18.2961 8.39567 16.9381 7.037C15.5794 5.679 13.9251 5 11.9751 5C10.8917 5 9.87108 5.24167 8.91308 5.725C7.95442 6.20833 7.13342 6.875 6.45008 7.725H8.30008C8.51675 7.725 8.69608 7.79567 8.83808 7.937C8.97942 8.079 9.05008 8.25833 9.05008 8.475C9.05008 8.69167 8.97942 8.87067 8.83808 9.012C8.69608 9.154 8.51675 9.225 8.30008 9.225H4.87508C4.62508 9.225 4.41242 9.13733 4.23708 8.962C4.06242 8.78733 3.97508 8.575 3.97508 8.325V4.9C3.97508 4.68333 4.04608 4.504 4.18808 4.362C4.32942 4.22067 4.50842 4.15 4.72508 4.15C4.94175 4.15 5.12108 4.22067 5.26308 4.362C5.40442 4.504 5.47508 4.68333 5.47508 4.9V6.525C6.29175 5.55833 7.26675 4.81233 8.40008 4.287C9.53342 3.76233 10.7251 3.5 11.9751 3.5C13.1584 3.5 14.2667 3.725 15.3001 4.175C16.3334 4.625 17.2334 5.23333 18.0001 6C18.7667 6.76667 19.3708 7.66267 19.8121 8.688C20.2541 9.71267 20.4751 10.8167 20.4751 12C20.4751 13.1833 20.2541 14.2873 19.8121 15.312C19.3708 16.3373 18.7667 17.2333 18.0001 18C17.2334 18.7667 16.3334 19.375 15.3001 19.825C14.2667 20.275 13.1584 20.5 11.9751 20.5Z" fill="#568196"/>
</svg>
