<svg width="24" height="24" viewBox="0 0 24 24" fill="none" xmlns="http://www.w3.org/2000/svg">
<path d="M6 19H9.7V13.125H14.3V19H18V9.99998L12 5.44998L6 9.99998V19ZM6 20C5.73333 20 5.5 19.9 5.3 19.7C5.1 19.5 5 19.2666 5 19V9.99998C5 9.84998 5.03333 9.70398 5.1 9.56198C5.16667 9.42064 5.26667 9.29998 5.4 9.19998L11.4 4.67498C11.4833 4.60831 11.575 4.55831 11.675 4.52498C11.775 4.49164 11.8833 4.47498 12 4.47498C12.1167 4.47498 12.225 4.49164 12.325 4.52498C12.425 4.55831 12.5167 4.60831 12.6 4.67498L18.6 9.19998C18.7333 9.29998 18.8333 9.42064 18.9 9.56198C18.9667 9.70398 19 9.84998 19 9.99998V19C19 19.2666 18.9 19.5 18.7 19.7C18.5 19.9 18.2667 20 18 20H13.3V14.125H10.7V20H6Z" fill="#568196"/>
</svg>
