<svg width="24" height="24" viewBox="0 0 24 24" fill="none" xmlns="http://www.w3.org/2000/svg">
<path d="M15.925 15.675C15.8083 15.5583 15.75 15.4373 15.75 15.312C15.75 15.1873 15.8083 15.075 15.925 14.975L17.875 13H9.72495C9.59162 13 9.47495 12.9543 9.37495 12.863C9.27495 12.771 9.22495 12.65 9.22495 12.5C9.22495 12.35 9.27495 12.229 9.37495 12.137C9.47495 12.0457 9.59162 12 9.72495 12H17.875L15.9 10.025C15.8 9.925 15.75 9.80833 15.75 9.675C15.75 9.54167 15.8083 9.425 15.925 9.325C16.025 9.20833 16.1416 9.15 16.275 9.15C16.4083 9.15 16.525 9.20833 16.625 9.325L19.25 11.925C19.3333 12.025 19.3916 12.1207 19.425 12.212C19.4583 12.304 19.475 12.4 19.475 12.5C19.475 12.6 19.4583 12.6957 19.425 12.787C19.3916 12.879 19.3333 12.975 19.25 13.075L16.6 15.7C16.5 15.8 16.3873 15.85 16.262 15.85C16.1373 15.85 16.025 15.7917 15.925 15.675V15.675ZM5.79995 21C5.34995 21 4.97062 20.846 4.66195 20.538C4.35395 20.2293 4.19995 19.8417 4.19995 19.375V5.625C4.19995 5.15833 4.35395 4.771 4.66195 4.463C4.97062 4.15433 5.34995 4 5.79995 4H11.725C11.875 4 11.996 4.04567 12.088 4.137C12.1793 4.229 12.225 4.35 12.225 4.5C12.225 4.65 12.1793 4.77067 12.088 4.862C11.996 4.954 11.875 5 11.725 5H5.79995C5.64995 5 5.51262 5.06267 5.38795 5.188C5.26262 5.31267 5.19995 5.45833 5.19995 5.625V19.375C5.19995 19.5417 5.26262 19.6873 5.38795 19.812C5.51262 19.9373 5.64995 20 5.79995 20H11.725C11.875 20 11.996 20.0457 12.088 20.137C12.1793 20.229 12.225 20.35 12.225 20.5C12.225 20.65 12.1793 20.771 12.088 20.863C11.996 20.9543 11.875 21 11.725 21H5.79995Z" fill="#568196"/>
</svg>
