<svg width="24" height="24" viewBox="0 0 24 24" fill="none" xmlns="http://www.w3.org/2000/svg">
<path d="M4.625 19C4.15833 19 3.771 18.846 3.463 18.538C3.15433 18.2293 3 17.8417 3 17.375V6.625C3 6.15833 3.15433 5.771 3.463 5.463C3.771 5.15433 4.15833 5 4.625 5H19.375C19.8417 5 20.2293 5.15433 20.538 5.463C20.846 5.771 21 6.15833 21 6.625V17.375C21 17.8417 20.846 18.2293 20.538 18.538C20.2293 18.846 19.8417 19 19.375 19H4.625ZM20 6.875L12.45 11.825C12.3833 11.8583 12.3127 11.8873 12.238 11.912C12.1627 11.9373 12.0833 11.95 12 11.95C11.9167 11.95 11.8373 11.9373 11.762 11.912C11.6873 11.8873 11.6167 11.8583 11.55 11.825L4 6.875V17.375C4 17.5583 4.05833 17.7083 4.175 17.825C4.29167 17.9417 4.44167 18 4.625 18H19.375C19.5583 18 19.7083 17.9417 19.825 17.825C19.9417 17.7083 20 17.5583 20 17.375V6.875ZM12 11L19.7 6H4.3L12 11ZM4 6.875V7.1V6.287V6.325V6V6.325V6.275V7.1V6.875V18V17.375V6.875Z" fill="#568196"/>
</svg>
