<svg width="24" height="24" viewBox="0 0 24 24" fill="none" xmlns="http://www.w3.org/2000/svg">
<path d="M14.475 19.725L9 17.825L5.05 19.35C4.78333 19.45 4.54167 19.425 4.325 19.275C4.10833 19.125 4 18.9083 4 18.625V6.39999C4 6.21665 4.04167 6.05399 4.125 5.91199C4.20833 5.77065 4.33333 5.66665 4.5 5.59999L8.475 4.27499C8.64167 4.20832 8.81667 4.17499 9 4.17499C9.18333 4.17499 9.35833 4.20832 9.525 4.27499L15 6.17499L18.95 4.64999C19.2167 4.54999 19.4583 4.56665 19.675 4.69999C19.8917 4.83332 20 5.03332 20 5.29999V17.675C20 17.8583 19.9457 18.021 19.837 18.163C19.729 18.3043 19.5917 18.4083 19.425 18.475L15.525 19.75C15.3583 19.8167 15.1873 19.8457 15.012 19.837C14.8373 19.829 14.6583 19.7917 14.475 19.725ZM14.5 18.7V6.99999L9.5 5.24999V16.95L14.5 18.7ZM15.5 18.7L19 17.55V5.69999L15.5 6.99999V18.7ZM5 18.3L8.5 16.95V5.24999L5 6.44999V18.3ZM15.5 6.99999V18.7V6.99999ZM8.5 5.24999V16.95V5.24999Z" fill="#568196"/>
</svg>
