<svg width="64" height="19" viewBox="0 0 64 19" fill="none" xmlns="http://www.w3.org/2000/svg">
<path d="M56.9636 0H44.7402C45.4523 4.04502 49.3685 7.8521 53.6408 7.8521H63.3721C63.4907 7.49518 63.4907 6.90032 63.4907 6.54341C63.4907 2.97428 60.5239 0 56.9636 0Z" fill="url(#paint0_linear_631_13679)"/>
<path d="M45.8081 8.56592V18.4405H51.7418V13.2058H56.9635C59.8116 13.2058 62.3038 11.1833 63.1345 8.56592H45.8081Z" fill="#4FAD50"/>
<path d="M24.9216 0V18.3216H30.1433C30.1433 18.3216 31.4487 18.3215 32.1608 17.0129C35.721 9.99357 36.789 7.8521 36.789 7.8521H37.5011V18.3216H43.4348V0H38.2131C38.2131 0 36.9077 0.118978 36.1957 1.30869C33.2288 7.37621 31.5674 10.4695 31.5674 10.4695H30.8553V0H24.9216Z" fill="#4FAD50"/>
<path d="M0 18.4405V0.118958H5.9337C5.9337 0.118958 7.59515 0.118954 8.54454 2.73632C10.918 9.63664 11.1554 10.5884 11.1554 10.5884C11.1554 10.5884 11.6301 8.92281 13.7662 2.73632C14.7156 0.118954 16.377 0.118958 16.377 0.118958H22.3107V18.4405H16.377V8.56591H15.665L12.3421 18.4405H9.73129L6.40843 8.56591H5.69637V18.4405H0Z" fill="#4FAD50"/>
<defs>
<linearGradient id="paint0_linear_631_13679" x1="44.7191" y1="3.98232" x2="63.4487" y2="3.98232" gradientUnits="userSpaceOnUse">
<stop stop-color="#27B1E6"/>
<stop offset="1" stop-color="#148ACA"/>
</linearGradient>
</defs>
</svg>
