<svg width="24" height="24" viewBox="0 0 24 24" fill="none" xmlns="http://www.w3.org/2000/svg">
<path d="M13.4751 17.125L8.9751 12.625C8.89176 12.5417 8.8291 12.4457 8.7871 12.337C8.74576 12.229 8.7251 12.1167 8.7251 12C8.7251 11.8834 8.74576 11.7707 8.7871 11.662C8.8291 11.554 8.89176 11.4584 8.9751 11.375L13.4751 6.87502C13.6251 6.72502 13.8001 6.65002 14.0001 6.65002C14.2001 6.65002 14.3751 6.72502 14.5251 6.87502C14.6751 7.02502 14.7501 7.20002 14.7501 7.40002C14.7501 7.60002 14.6751 7.77502 14.5251 7.92502L10.4501 12L14.5251 16.075C14.6751 16.225 14.7501 16.4 14.7501 16.6C14.7501 16.8 14.6751 16.975 14.5251 17.125C14.3751 17.275 14.2001 17.35 14.0001 17.35C13.8001 17.35 13.6251 17.275 13.4751 17.125V17.125Z" fill="#568196"/>
</svg>
