<svg width="24" height="24" viewBox="0 0 24 24" fill="none" xmlns="http://www.w3.org/2000/svg">
<path d="M10.7 13.25L5.37495 11.1C5.24162 11.05 5.13728 10.9667 5.06195 10.85C4.98728 10.7334 4.94995 10.6084 4.94995 10.475C4.94995 10.3417 4.98728 10.2167 5.06195 10.1C5.13728 9.98336 5.24995 9.8917 5.39995 9.82503L18.05 5.07503C18.1833 5.02503 18.3083 5.0167 18.425 5.05003C18.5416 5.08336 18.65 5.1417 18.75 5.22503C18.85 5.32503 18.9126 5.43336 18.938 5.55003C18.9626 5.6667 18.95 5.7917 18.9 5.92503L14.075 18.55C14.0083 18.7 13.9206 18.8084 13.812 18.875C13.704 18.9417 13.5833 18.975 13.45 18.975C13.3166 18.975 13.196 18.9417 13.088 18.875C12.9793 18.8084 12.8916 18.7 12.825 18.55L10.7 13.25ZM13.425 17.375L17.725 6.25003L6.54995 10.5L11.45 12.475L13.425 17.375Z" fill="#568196"/>
</svg>
