<svg width="24" height="24" viewBox="0 0 24 24" fill="none" xmlns="http://www.w3.org/2000/svg">
<path d="M5 18.725C4.85 18.725 4.72933 18.679 4.638 18.587C4.546 18.4957 4.5 18.375 4.5 18.225C4.5 18.0917 4.546 17.975 4.638 17.875C4.72933 17.775 4.85 17.725 5 17.725H6.5V10.225C6.5 8.94167 6.91667 7.78333 7.75 6.75C8.58333 5.71667 9.66667 5.075 11 4.825V4.125C11 3.825 11.096 3.58333 11.288 3.4C11.4793 3.21667 11.7167 3.125 12 3.125C12.2833 3.125 12.521 3.21667 12.713 3.4C12.9043 3.58333 13 3.825 13 4.125V4.825C14.3333 5.075 15.4167 5.71667 16.25 6.75C17.0833 7.78333 17.5 8.94167 17.5 10.225V17.725H19C19.15 17.725 19.271 17.775 19.363 17.875C19.4543 17.975 19.5 18.0917 19.5 18.225C19.5 18.375 19.4543 18.4957 19.363 18.587C19.271 18.679 19.15 18.725 19 18.725H5ZM12 21.625C11.5667 21.625 11.1877 21.471 10.863 21.163C10.5377 20.8543 10.375 20.4667 10.375 20H13.625C13.625 20.4667 13.471 20.8543 13.163 21.163C12.8543 21.471 12.4667 21.625 12 21.625ZM7.5 17.725H16.5V10.225C16.5 8.99167 16.0583 7.93333 15.175 7.05C14.2917 6.16667 13.2333 5.725 12 5.725C10.7667 5.725 9.70833 6.16667 8.825 7.05C7.94167 7.93333 7.5 8.99167 7.5 10.225V17.725Z" fill="#568196"/>
</svg>
