<svg width="32" height="32" viewBox="0 0 32 32" fill="none" xmlns="http://www.w3.org/2000/svg">
<path d="M10.6664 27.3336C10.4221 27.3336 10.2221 27.2557 10.0664 27.1C9.9112 26.9442 9.8336 26.7442 9.8336 26.5V23.3H7.8336C7.5888 23.3 7.3888 23.2165 7.2336 23.0496C7.07787 22.8832 7 22.6888 7 22.4664C7 22.2221 7.07787 22.0221 7.2336 21.8664C7.3888 21.7112 7.5888 21.6336 7.8336 21.6336H9.8336V17.9664H7.8336C7.5888 17.9664 7.3888 17.8888 7.2336 17.7336C7.07787 17.5778 7 17.3778 7 17.1336C7 16.8888 7.07787 16.6888 7.2336 16.5336C7.3888 16.3778 7.5888 16.3 7.8336 16.3H9.8336V5.69998C9.8336 5.41092 9.9336 5.16638 10.1336 4.96638C10.3336 4.76638 10.5779 4.66638 10.8664 4.66638H18.3336C20.2445 4.66638 21.8333 5.29972 23.1 6.56638C24.3667 7.83305 25 9.42212 25 11.3336C25 13.2445 24.3667 14.8277 23.1 16.0832C21.8333 17.3386 20.2445 17.9664 18.3336 17.9664H11.5V21.6336H16.1664C16.4112 21.6336 16.6112 21.7112 16.7664 21.8664C16.9221 22.0221 17 22.2221 17 22.4664C17 22.7112 16.9221 22.9112 16.7664 23.0664C16.6112 23.2221 16.4112 23.3 16.1664 23.3H11.5V26.5C11.5 26.7442 11.4221 26.9442 11.2664 27.1C11.1112 27.2557 10.9112 27.3336 10.6664 27.3336V27.3336ZM11.5 16.3H18.3336C19.7779 16.3 20.9723 15.8277 21.9168 14.8832C22.8613 13.9386 23.3336 12.7554 23.3336 11.3336C23.3336 9.88878 22.8613 8.69438 21.9168 7.75038C20.9723 6.80585 19.7779 6.33358 18.3336 6.33358H11.5V16.3Z" fill="#568196"/>
</svg>
