<svg width="24" height="24" viewBox="0 0 24 24" fill="none" xmlns="http://www.w3.org/2000/svg">
<path d="M11 17.5C10.85 17.5 10.729 17.45 10.637 17.35C10.5457 17.25 10.5 17.1333 10.5 17C10.5 16.85 10.5457 16.729 10.637 16.637C10.729 16.5456 10.85 16.5 11 16.5H13C13.15 16.5 13.271 16.55 13.363 16.65C13.4543 16.75 13.5 16.8666 13.5 17C13.5 17.15 13.4543 17.271 13.363 17.363C13.271 17.4543 13.15 17.5 13 17.5H11ZM4 6.72498C3.85 6.72498 3.72933 6.67898 3.638 6.58698C3.546 6.49564 3.5 6.37498 3.5 6.22498C3.5 6.09164 3.546 5.97498 3.638 5.87498C3.72933 5.77498 3.85 5.72498 4 5.72498H20C20.15 5.72498 20.271 5.77498 20.363 5.87498C20.4543 5.97498 20.5 6.09164 20.5 6.22498C20.5 6.37498 20.4543 6.49564 20.363 6.58698C20.271 6.67898 20.15 6.72498 20 6.72498H4ZM7 12.125C6.85 12.125 6.72933 12.075 6.638 11.975C6.546 11.875 6.5 11.7583 6.5 11.625C6.5 11.475 6.546 11.354 6.638 11.262C6.72933 11.1706 6.85 11.125 7 11.125H17C17.15 11.125 17.271 11.1706 17.363 11.262C17.4543 11.354 17.5 11.475 17.5 11.625C17.5 11.7583 17.4543 11.875 17.363 11.975C17.271 12.075 17.15 12.125 17 12.125H7Z" fill="#568196"/>
</svg>
