<svg width="24" height="24" viewBox="0 0 24 24" fill="none" xmlns="http://www.w3.org/2000/svg">
<path d="M4.92491 5.5C4.77491 5.5 4.65391 5.45 4.56191 5.35C4.47058 5.25 4.42491 5.13333 4.42491 5C4.42491 4.85 4.47058 4.729 4.56191 4.637C4.65391 4.54567 4.77491 4.5 4.92491 4.5H19.0749C19.2249 4.5 19.3459 4.55 19.4379 4.65C19.5292 4.75 19.5749 4.86667 19.5749 5C19.5749 5.15 19.5292 5.27067 19.4379 5.362C19.3459 5.454 19.2249 5.5 19.0749 5.5H4.92491ZM5.29991 19.5C5.08324 19.5 4.89591 19.4207 4.73791 19.262C4.57924 19.104 4.49991 18.9167 4.49991 18.7V13.5H4.04991C3.79991 13.5 3.59158 13.4 3.42491 13.2C3.25824 13 3.20824 12.7667 3.27491 12.5L4.27491 8.125C4.30824 7.94167 4.39991 7.79167 4.54991 7.675C4.69991 7.55833 4.87491 7.5 5.07491 7.5H18.9249C19.1249 7.5 19.2999 7.55833 19.4499 7.675C19.5999 7.79167 19.6916 7.94167 19.7249 8.125L20.7249 12.5C20.7916 12.7667 20.7416 13 20.5749 13.2C20.4082 13.4 20.1999 13.5 19.9499 13.5H19.4999V19C19.4999 19.15 19.4499 19.271 19.3499 19.363C19.2499 19.4543 19.1332 19.5 18.9999 19.5C18.8499 19.5 18.7292 19.4543 18.6379 19.363C18.5459 19.271 18.4999 19.15 18.4999 19V13.5H13.4999V18.7C13.4999 18.9167 13.4206 19.104 13.2619 19.262C13.1039 19.4207 12.9166 19.5 12.6999 19.5H5.29991ZM5.49991 18.5H12.4999V13.5H5.49991V18.5ZM4.27491 12.5H19.7249H4.27491ZM4.27491 12.5H19.7249L18.7999 8.5H5.19991L4.27491 12.5Z" fill="#568196"/>
</svg>
