<svg width="24" height="24" viewBox="0 0 24 24" fill="none" xmlns="http://www.w3.org/2000/svg">
<path d="M11.525 2C12.7583 2 13.8166 2.43733 14.7 3.312C15.5833 4.18733 16.025 5.25 16.025 6.5C16.025 7.41667 15.771 8.246 15.263 8.988C14.7543 9.72933 14.075 10.2667 13.225 10.6H13.025V9.575C13.625 9.30833 14.1083 8.90433 14.475 8.363C14.8416 7.821 15.025 7.2 15.025 6.5C15.025 5.55 14.6793 4.729 13.988 4.037C13.296 3.34567 12.475 3 11.525 3C10.575 3 9.75395 3.34567 9.06195 4.037C8.37062 4.729 8.02495 5.55 8.02495 6.5C8.02495 7.2 8.21262 7.829 8.58795 8.387C8.96262 8.94567 9.44162 9.35 10.025 9.6V10.725C9.15828 10.425 8.44162 9.89567 7.87495 9.137C7.30829 8.379 7.02495 7.5 7.02495 6.5C7.02495 5.25 7.46662 4.18733 8.34995 3.312C9.23329 2.43733 10.2916 2 11.525 2ZM10.575 21C10.4416 21 10.3083 20.971 10.175 20.913C10.0416 20.8543 9.92495 20.775 9.82495 20.675L5.89995 16.8C5.78329 16.6667 5.72095 16.496 5.71295 16.288C5.70428 16.0793 5.76662 15.875 5.89995 15.675C6.04995 15.475 6.20829 15.3417 6.37495 15.275C6.54162 15.2083 6.72495 15.2 6.92495 15.25L10.025 15.875V6.5C10.025 6.08333 10.171 5.72933 10.463 5.438C10.7543 5.146 11.1083 5 11.525 5C11.9416 5 12.296 5.146 12.588 5.438C12.8793 5.72933 13.025 6.08333 13.025 6.5V11.575H13.975C14.0583 11.575 14.1293 11.5833 14.188 11.6C14.246 11.6167 14.3 11.6417 14.35 11.675L17.55 13.25C18.0166 13.4667 18.354 13.825 18.562 14.325C18.7706 14.825 18.825 15.3333 18.725 15.85L17.975 20.2C17.925 20.4333 17.8083 20.625 17.625 20.775C17.4416 20.925 17.225 21 16.975 21H10.575ZM10.575 20H16.975L17.725 15.675C17.7916 15.3917 17.7833 15.104 17.7 14.812C17.6166 14.5207 17.425 14.3083 17.125 14.175L13.775 12.5H12.025V6.5C12.025 6.35 11.979 6.229 11.887 6.137C11.7956 6.04567 11.675 6 11.525 6C11.375 6 11.2543 6.04567 11.163 6.137C11.071 6.229 11.025 6.35 11.025 6.5V17.1L6.77495 16.25L10.575 20ZM16.975 20H10.575H16.975Z" fill="#568196"/>
</svg>
