<svg width="24" height="24" viewBox="0 0 24 24" fill="none" xmlns="http://www.w3.org/2000/svg">
<path d="M4 18.5C3.85 18.5 3.72933 18.45 3.638 18.35C3.546 18.25 3.5 18.1333 3.5 18C3.5 17.85 3.546 17.729 3.638 17.637C3.72933 17.5457 3.85 17.5 4 17.5H8C8.15 17.5 8.271 17.55 8.363 17.65C8.45433 17.75 8.5 17.8667 8.5 18C8.5 18.15 8.45433 18.271 8.363 18.363C8.271 18.4543 8.15 18.5 8 18.5H4ZM4 6.5C3.85 6.5 3.72933 6.45 3.638 6.35C3.546 6.25 3.5 6.13333 3.5 6C3.5 5.85 3.546 5.729 3.638 5.637C3.72933 5.54567 3.85 5.5 4 5.5H12C12.15 5.5 12.271 5.55 12.363 5.65C12.4543 5.75 12.5 5.86667 12.5 6C12.5 6.15 12.4543 6.27067 12.363 6.362C12.271 6.454 12.15 6.5 12 6.5H4ZM12 20.5C11.85 20.5 11.729 20.4543 11.637 20.363C11.5457 20.271 11.5 20.15 11.5 20V16C11.5 15.85 11.55 15.729 11.65 15.637C11.75 15.5457 11.8667 15.5 12 15.5C12.15 15.5 12.271 15.5457 12.363 15.637C12.4543 15.729 12.5 15.85 12.5 16V17.5H20C20.15 17.5 20.271 17.55 20.363 17.65C20.4543 17.75 20.5 17.8667 20.5 18C20.5 18.15 20.4543 18.271 20.363 18.363C20.271 18.4543 20.15 18.5 20 18.5H12.5V20C12.5 20.15 12.45 20.271 12.35 20.363C12.25 20.4543 12.1333 20.5 12 20.5ZM8 14.5C7.85 14.5 7.72933 14.4543 7.638 14.363C7.546 14.271 7.5 14.15 7.5 14V12.5H4C3.85 12.5 3.72933 12.45 3.638 12.35C3.546 12.25 3.5 12.1333 3.5 12C3.5 11.85 3.546 11.729 3.638 11.637C3.72933 11.5457 3.85 11.5 4 11.5H7.5V10C7.5 9.85 7.55 9.729 7.65 9.637C7.75 9.54567 7.86667 9.5 8 9.5C8.15 9.5 8.271 9.54567 8.363 9.637C8.45433 9.729 8.5 9.85 8.5 10V14C8.5 14.15 8.45 14.271 8.35 14.363C8.25 14.4543 8.13333 14.5 8 14.5ZM12 12.5C11.85 12.5 11.729 12.45 11.637 12.35C11.5457 12.25 11.5 12.1333 11.5 12C11.5 11.85 11.5457 11.729 11.637 11.637C11.729 11.5457 11.85 11.5 12 11.5H20C20.15 11.5 20.271 11.55 20.363 11.65C20.4543 11.75 20.5 11.8667 20.5 12C20.5 12.15 20.4543 12.271 20.363 12.363C20.271 12.4543 20.15 12.5 20 12.5H12ZM16 8.5C15.85 8.5 15.729 8.45433 15.637 8.363C15.5457 8.271 15.5 8.15 15.5 8V4C15.5 3.85 15.55 3.729 15.65 3.637C15.75 3.54567 15.8667 3.5 16 3.5C16.15 3.5 16.271 3.54567 16.363 3.637C16.4543 3.729 16.5 3.85 16.5 4V5.5H20C20.15 5.5 20.271 5.55 20.363 5.65C20.4543 5.75 20.5 5.86667 20.5 6C20.5 6.15 20.4543 6.27067 20.363 6.362C20.271 6.454 20.15 6.5 20 6.5H16.5V8C16.5 8.15 16.45 8.271 16.35 8.363C16.25 8.45433 16.1333 8.5 16 8.5Z" fill="#568196"/>
</svg>
