<svg width="24" height="24" viewBox="0 0 24 24" fill="none" xmlns="http://www.w3.org/2000/svg">
<path d="M12.0001 15.15C13.0168 15.15 13.8794 14.7957 14.5881 14.087C15.2961 13.379 15.6501 12.5167 15.6501 11.5C15.6501 10.4833 15.2961 9.62067 14.5881 8.912C13.8794 8.204 13.0168 7.85 12.0001 7.85C10.9834 7.85 10.1211 8.204 9.4131 8.912C8.70443 9.62067 8.3501 10.4833 8.3501 11.5C8.3501 12.5167 8.70443 13.379 9.4131 14.087C10.1211 14.7957 10.9834 15.15 12.0001 15.15ZM12.0001 14.2C11.2501 14.2 10.6128 13.9373 10.0881 13.412C9.56276 12.8873 9.3001 12.25 9.3001 11.5C9.3001 10.75 9.56276 10.1123 10.0881 9.587C10.6128 9.06233 11.2501 8.8 12.0001 8.8C12.7501 8.8 13.3878 9.06233 13.9131 9.587C14.4378 10.1123 14.7001 10.75 14.7001 11.5C14.7001 12.25 14.4378 12.8873 13.9131 13.412C13.3878 13.9373 12.7501 14.2 12.0001 14.2V14.2ZM12.0001 18C9.93343 18 8.03743 17.4623 6.3121 16.387C4.58743 15.3123 3.25843 13.85 2.3251 12C2.29176 11.9333 2.26676 11.8583 2.2501 11.775C2.23343 11.6917 2.2251 11.6 2.2251 11.5C2.2251 11.4 2.23343 11.3083 2.2501 11.225C2.26676 11.1417 2.29176 11.0667 2.3251 11C3.25843 9.15 4.58743 7.68733 6.3121 6.612C8.03743 5.53733 9.93343 5 12.0001 5C14.0668 5 15.9628 5.53733 17.6881 6.612C19.4128 7.68733 20.7418 9.15 21.6751 11C21.7084 11.0667 21.7334 11.1417 21.7501 11.225C21.7668 11.3083 21.7751 11.4 21.7751 11.5C21.7751 11.6 21.7668 11.6917 21.7501 11.775C21.7334 11.8583 21.7084 11.9333 21.6751 12C20.7418 13.85 19.4128 15.3123 17.6881 16.387C15.9628 17.4623 14.0668 18 12.0001 18ZM12.0001 17C13.8834 17 15.6128 16.504 17.1881 15.512C18.7628 14.5207 19.9668 13.1833 20.8001 11.5C19.9668 9.81667 18.7628 8.479 17.1881 7.487C15.6128 6.49567 13.8834 6 12.0001 6C10.1168 6 8.38743 6.49567 6.8121 7.487C5.23743 8.479 4.03343 9.81667 3.2001 11.5C4.03343 13.1833 5.23743 14.5207 6.8121 15.512C8.38743 16.504 10.1168 17 12.0001 17Z" fill="#568196"/>
</svg>
