<svg width="24" height="24" viewBox="0 0 24 24" fill="none" xmlns="http://www.w3.org/2000/svg">
<path d="M15.4501 12.65L14.6501 11.85C14.8001 10.9834 14.5544 10.229 13.9131 9.58702C13.2711 8.94569 12.5168 8.70002 11.6501 8.85002L10.8501 8.05002C11.0168 7.98336 11.1918 7.93336 11.3751 7.90002C11.5584 7.86669 11.7668 7.85002 12.0001 7.85002C13.0168 7.85002 13.8794 8.20402 14.5881 8.91202C15.2961 9.62069 15.6501 10.4834 15.6501 11.5C15.6501 11.7334 15.6334 11.9457 15.6001 12.137C15.5668 12.329 15.5168 12.5 15.4501 12.65ZM18.6001 15.725L17.8501 15.05C18.4834 14.5667 19.0461 14.0374 19.5381 13.462C20.0294 12.8874 20.4501 12.2334 20.8001 11.5C19.9668 9.81669 18.7708 8.47902 17.2121 7.48702C15.6541 6.49569 13.9168 6.00002 12.0001 6.00002C11.5168 6.00002 11.0418 6.03336 10.5751 6.10002C10.1084 6.16669 9.6501 6.26669 9.2001 6.40002L8.4251 5.62502C9.00843 5.40836 9.6001 5.25002 10.2001 5.15002C10.8001 5.05002 11.4001 5.00002 12.0001 5.00002C14.0668 5.00002 15.9711 5.55002 17.7131 6.65002C19.4544 7.75002 20.7751 9.20002 21.6751 11C21.7084 11.0667 21.7334 11.1417 21.7501 11.225C21.7668 11.3084 21.7751 11.4 21.7751 11.5C21.7751 11.6 21.7668 11.6917 21.7501 11.775C21.7334 11.8584 21.7084 11.9334 21.6751 12C21.3251 12.7167 20.8918 13.3834 20.3751 14C19.8584 14.6167 19.2668 15.1917 18.6001 15.725V15.725ZM19.3751 20.775L15.8251 17.25C15.3918 17.45 14.8461 17.625 14.1881 17.775C13.5294 17.925 12.8001 18 12.0001 18C9.91676 18 8.00843 17.45 6.2751 16.35C4.54176 15.25 3.2251 13.8 2.3251 12C2.29176 11.9334 2.26676 11.8584 2.2501 11.775C2.23343 11.6917 2.2251 11.6 2.2251 11.5C2.2251 11.4 2.23343 11.3084 2.2501 11.225C2.26676 11.1417 2.29176 11.0667 2.3251 11C2.7251 10.2167 3.21676 9.48736 3.8001 8.81202C4.38343 8.13736 5.0001 7.55836 5.6501 7.07502L3.2001 4.62502C3.11676 4.54169 3.07076 4.43336 3.0621 4.30002C3.0541 4.16669 3.10843 4.04169 3.2251 3.92502C3.3251 3.82502 3.44176 3.77502 3.5751 3.77502C3.70843 3.77502 3.8251 3.82502 3.9251 3.92502L20.0751 20.075C20.1751 20.175 20.2294 20.2917 20.2381 20.425C20.2461 20.5584 20.1918 20.675 20.0751 20.775C19.9751 20.8917 19.8584 20.95 19.7251 20.95C19.5918 20.95 19.4751 20.8917 19.3751 20.775ZM6.3501 7.77502C5.78343 8.19169 5.2001 8.73336 4.6001 9.40002C4.0001 10.0667 3.53343 10.7667 3.2001 11.5C4.03343 13.1834 5.2291 14.5207 6.7871 15.512C8.34576 16.504 10.0834 17 12.0001 17C12.5834 17 13.1668 16.9457 13.7501 16.837C14.3334 16.729 14.7751 16.6167 15.0751 16.5L13.4251 14.85C13.2751 14.9334 13.0584 15.004 12.7751 15.062C12.4918 15.1207 12.2334 15.15 12.0001 15.15C10.9834 15.15 10.1211 14.7957 9.4131 14.087C8.70443 13.379 8.3501 12.5167 8.3501 11.5C8.3501 11.2834 8.37943 11.0374 8.4381 10.762C8.4961 10.4874 8.56676 10.2584 8.6501 10.075L6.3501 7.77502Z" fill="#568196"/>
</svg>
